<svg width="370" height="252" viewBox="0 0 370 252" fill="none" xmlns="http://www.w3.org/2000/svg">
<path d="M92 229H88.125V225.125V221.25V217.375V213.5V209.625V205.75H84.25H80.375H76.5H72.625H68.75V209.625V213.5V217.375V221.25V225.125V229H64.875H61V225.125V221.25V217.375V213.5V209.625V205.75V201.875V198V194.125V190.25H64.875H68.75V194.125V198H72.625H76.5H80.375H84.25H88.125V194.125V190.25H92H95.875V194.125V198V201.875V205.75V209.625V213.5V217.375V221.25V225.125V229H92ZM88.125 190.25H84.25H80.375H76.5H72.625H68.75V186.375V182.5H72.625H76.5H80.375H84.25H88.125V186.375V190.25ZM134.625 229H130.75V225.125V221.25V217.375V213.5V209.625V205.75V201.875V198H126.875H123V201.875V205.75H119.125H115.25V201.875V198H119.125H123V194.125V190.25H126.875H130.75V186.375V182.5H134.625H138.5V186.375V190.25V194.125V198V201.875V205.75V209.625V213.5V217.375V221.25V225.125V229H134.625ZM103.625 229H99.75V225.125V221.25V217.375V213.5V209.625V205.75V201.875V198V194.125V190.25V186.375V182.5H103.625H107.5V186.375V190.25H111.375H115.25V194.125V198H111.375H107.5V201.875V205.75V209.625V213.5V217.375V221.25V225.125V229H103.625ZM173.375 229H169.5V225.125V221.25V217.375V213.5V209.625V205.75H165.625H161.75H157.875H154H150.125V209.625V213.5V217.375V221.25V225.125V229H146.25H142.375V225.125V221.25V217.375V213.5V209.625V205.75V201.875V198V194.125V190.25H146.25H150.125V194.125V198H154H157.875H161.75H165.625H169.5V194.125V190.25H173.375H177.25V194.125V198V201.875V205.75V209.625V213.5V217.375V221.25V225.125V229H173.375ZM169.5 190.25H165.625H161.75H157.875H154H150.125V186.375V182.5H154H157.875H161.75H165.625H169.5V186.375V190.25ZM216 229H212.125H208.25H204.375H200.5H196.625H192.75H188.875V225.125V221.25H192.75H196.625H200.5H204.375H208.25H212.125H216V217.375V213.5H219.875H223.75V217.375V221.25H219.875V225.125V229H216ZM188.875 221.25H185H181.125V217.375V213.5V209.625V205.75V201.875V198V194.125V190.25H185H188.875V194.125V198V201.875V205.75V209.625V213.5V217.375V221.25ZM219.875 198H216V194.125V190.25H212.125H208.25H204.375H200.5H196.625H192.75H188.875V186.375V182.5H192.75H196.625H200.5H204.375H208.25H212.125H216H219.875V186.375V190.25H223.75V194.125V198H219.875ZM262.5 229H258.625H254.75H250.875H247H243.125H239.25H235.375V225.125V221.25H239.25H243.125H247H250.875H254.75H258.625H262.5H266.375V225.125V229H262.5ZM266.375 221.25V217.375V213.5V209.625V205.75V201.875V198V194.125V190.25H270.25H274.125V194.125V198V201.875V205.75V209.625V213.5V217.375V221.25H270.25H266.375ZM235.375 221.25H231.5H227.625V217.375V213.5V209.625V205.75V201.875V198V194.125V190.25H231.5H235.375V194.125V198V201.875V205.75V209.625V213.5V217.375V221.25ZM266.375 190.25H262.5H258.625H254.75H250.875H247H243.125H239.25H235.375V186.375V182.5H239.25H243.125H247H250.875H254.75H258.625H262.5H266.375V186.375V190.25ZM305.125 229H301.25H297.375H293.5H289.625H285.75H281.875H278V225.125V221.25V217.375V213.5V209.625V205.75V201.875V198V194.125V190.25V186.375V182.5H281.875H285.75H289.625H293.5H297.375H301.25H305.125H309V186.375V190.25H312.875H316.75V194.125V198V201.875V205.75V209.625V213.5V217.375V221.25H312.875H309V217.375V213.5V209.625V205.75V201.875V198V194.125V190.25H305.125H301.25H297.375H293.5H289.625H285.75V194.125V198V201.875V205.75V209.625V213.5V217.375V221.25H289.625H293.5H297.375H301.25H305.125H309V225.125V229H305.125ZM355.5 229H351.625H347.75H343.875H340H336.125H332.25H328.375H324.5H320.625V225.125V221.25V217.375V213.5V209.625V205.75V201.875V198V194.125V190.25V186.375V182.5H324.5H328.375H332.25H336.125H340H343.875H347.75H351.625H355.5H359.375V186.375V190.25H355.5H351.625H347.75H343.875H340H336.125H332.25H328.375V194.125V198H332.25H336.125H340V201.875V205.75H336.125H332.25H328.375V209.625V213.5V217.375V221.25H332.25H336.125H340H343.875H347.75H351.625H355.5H359.375V225.125V229H355.5Z" fill="#0D6252"/>
<rect x="294" y="98" width="14" height="14" fill="#0D6253"/>
<rect x="308" y="84" width="14" height="14" fill="#0D6253"/>
<rect x="308" y="70" width="14" height="14" fill="#0D6253"/>
<rect x="308" y="56" width="14" height="14" fill="#0D6253"/>
<rect x="294" y="42" width="14" height="14" fill="#0D6253"/>
<rect x="280" y="28" width="14" height="14" fill="#0D6253"/>
<rect x="266" y="14" width="14" height="14" fill="#0D6253"/>
<rect x="252" y="14" width="14" height="14" fill="#0D6253"/>
<rect x="238" y="14" width="14" height="14" fill="#0D6253"/>
<rect x="210" width="14" height="14" fill="#0D6253"/>
<rect x="224" y="14" width="14" height="14" fill="#0D6253"/>
<rect x="196" width="14" height="14" fill="#0D6253"/>
<rect x="182" y="14" width="14" height="14" fill="#0D6253"/>
<rect x="196" y="28" width="14" height="14" fill="#19B27B"/>
<rect x="182" y="28" width="14" height="14" fill="#0D6253"/>
<rect x="154" y="14" width="14" height="14" fill="#0D6253"/>
<rect x="140" width="14" height="14" fill="#0D6253"/>
<rect x="126" width="14" height="14" fill="#0D6253"/>
<rect x="112" width="14" height="14" fill="#0D6253"/>
<rect x="98" width="14" height="14" fill="#0D6253"/>
<rect x="84" y="14" width="14" height="14" fill="#0D6253"/>
<rect x="70" y="28" width="14" height="14" fill="#0D6253"/>
<rect x="56" y="28" width="14" height="14" fill="#0D6253"/>
<rect x="42" y="42" width="14" height="14" fill="#0D6253"/>
<rect x="28" y="56" width="14" height="14" fill="#0D6253"/>
<rect x="14" y="70" width="14" height="14" fill="#0D6253"/>
<rect x="28" y="70" width="14" height="14" fill="#138F72"/>
<rect x="42" y="70" width="14" height="14" fill="#19B3A9"/>
<rect x="42" y="56" width="14" height="14" fill="#19B3A9"/>
<rect x="56" y="70" width="14" height="14" fill="#138F72"/>
<rect x="56" y="56" width="14" height="14" fill="#19B3A9"/>
<rect x="56" y="42" width="14" height="14" fill="#19B3A9"/>
<rect x="70" y="70" width="14" height="14" fill="#19B3A9"/>
<rect x="70" y="56" width="14" height="14" fill="#19B3A9"/>
<rect x="70" y="42" width="14" height="14" fill="#1FD1B1"/>
<rect x="84" y="70" width="14" height="14" fill="#138F72"/>
<rect x="84" y="56" width="14" height="14" fill="#19B3A9"/>
<rect x="84" y="42" width="14" height="14" fill="#19B3A9"/>
<rect x="84" y="28" width="14" height="14" fill="#1FD1B1"/>
<rect x="98" y="70" width="14" height="14" fill="#19B3A9"/>
<rect x="98" y="56" width="14" height="14" fill="#19B3A9"/>
<rect x="98" y="42" width="14" height="14" fill="#1FD1B1"/>
<rect x="98" y="28" width="14" height="14" fill="#19B27B"/>
<rect x="98" y="14" width="14" height="14" fill="#1FD1B1"/>
<rect x="112" y="70" width="14" height="14" fill="#138F72"/>
<rect x="112" y="56" width="14" height="14" fill="#19B3A9"/>
<rect x="112" y="42" width="14" height="14" fill="#19B3A9"/>
<rect x="112" y="28" width="14" height="14" fill="#1FD1B1"/>
<rect x="112" y="14" width="14" height="14" fill="#19B27B"/>
<rect x="126" y="70" width="14" height="14" fill="#19B3A9"/>
<rect x="126" y="56" width="14" height="14" fill="#19B3A9"/>
<rect x="126" y="42" width="14" height="14" fill="#1FD1B1"/>
<rect x="126" y="28" width="14" height="14" fill="#19B27B"/>
<rect x="126" y="14" width="14" height="14" fill="#1FD1B1"/>
<rect x="140" y="70" width="14" height="14" fill="#138F72"/>
<rect x="140" y="56" width="14" height="14" fill="#19B3A9"/>
<rect x="140" y="42" width="14" height="14" fill="#19B3A9"/>
<rect x="140" y="28" width="14" height="14" fill="#1FD1B1"/>
<rect x="140" y="14" width="14" height="14" fill="#19B27B"/>
<rect x="154" y="70" width="14" height="14" fill="#19B3A9"/>
<rect x="154" y="56" width="14" height="14" fill="#19B3A9"/>
<rect x="154" y="42" width="14" height="14" fill="#1FD1B1"/>
<rect x="154" y="28" width="14" height="14" fill="#19B27B"/>
<rect x="168" y="70" width="14" height="14" fill="#138F72"/>
<rect x="168" y="56" width="14" height="14" fill="#19B3A9"/>
<rect x="168" y="42" width="14" height="14" fill="#19B3A9"/>
<rect x="168" y="28" width="14" height="14" fill="#0D6253"/>
<rect x="182" y="70" width="14" height="14" fill="#0D6253"/>
<rect x="182" y="56" width="14" height="14" fill="#0D6253"/>
<rect x="182" y="42" width="14" height="14" fill="#0D6253"/>
<rect x="210" y="70" width="14" height="14" fill="#19B27B"/>
<rect x="210" y="56" width="14" height="14" fill="#1FD1B1"/>
<rect x="210" y="42" width="14" height="14" fill="#19B27B"/>
<rect x="210" y="28" width="14" height="14" fill="#1FD1B1"/>
<rect x="210" y="14" width="14" height="14" fill="#1FD1B1"/>
<rect x="238" y="70" width="14" height="14" fill="#138F72"/>
<rect x="238" y="56" width="14" height="14" fill="#138F72"/>
<rect x="238" y="42" width="14" height="14" fill="#138F72"/>
<rect x="238" y="28" width="14" height="14" fill="#1FD1B1"/>
<rect x="224" y="70" width="14" height="14" fill="#19B27B"/>
<rect x="224" y="56" width="14" height="14" fill="#19B27B"/>
<rect x="224" y="42" width="14" height="14" fill="#1FD1B1"/>
<rect x="224" y="28" width="14" height="14" fill="#19B27B"/>
<rect x="196" y="14" width="14" height="14" fill="#1FD1B1"/>
<rect x="252" y="70" width="14" height="14" fill="#138F72"/>
<rect x="280" y="70" width="14" height="14" fill="#19B27B"/>
<rect x="280" y="56" width="14" height="14" fill="#19B27B"/>
<rect x="280" y="42" width="14" height="14" fill="#1FD1B1"/>
<rect x="266" y="70" width="14" height="14" fill="#138F72"/>
<rect x="266" y="56" width="14" height="14" fill="#138F72"/>
<rect x="266" y="42" width="14" height="14" fill="#138F72"/>
<rect x="266" y="28" width="14" height="14" fill="#1FD1B1"/>
<rect x="294" y="70" width="14" height="14" fill="#19B27B"/>
<rect x="294" y="56" width="14" height="14" fill="#1FD1B1"/>
<rect x="14" y="84" width="14" height="14" fill="#0D6253"/>
<rect x="28" y="84" width="14" height="14" fill="#19B3A9"/>
<rect x="42" y="84" width="14" height="14" fill="#138F72"/>
<rect x="56" y="84" width="14" height="14" fill="#19B3A9"/>
<rect x="70" y="84" width="14" height="14" fill="#138F72"/>
<rect x="84" y="84" width="14" height="14" fill="#19B3A9"/>
<rect x="98" y="84" width="14" height="14" fill="#138F72"/>
<rect x="112" y="84" width="14" height="14" fill="#19B3A9"/>
<rect x="126" y="84" width="14" height="14" fill="#138F72"/>
<rect x="140" y="84" width="14" height="14" fill="#19B3A9"/>
<rect x="154" y="84" width="14" height="14" fill="#138F72"/>
<rect x="168" y="84" width="14" height="14" fill="#19B3A9"/>
<rect x="182" y="84" width="14" height="14" fill="#0D6253"/>
<rect x="210" y="84" width="14" height="14" fill="#19B27B"/>
<rect x="238" y="84" width="14" height="14" fill="#19B27B"/>
<rect x="224" y="84" width="14" height="14" fill="#19B27B"/>
<rect x="252" y="84" width="14" height="14" fill="#19B27B"/>
<rect x="280" y="84" width="14" height="14" fill="#19B27B"/>
<rect x="266" y="84" width="14" height="14" fill="#19B27B"/>
<rect x="294" y="84" width="14" height="14" fill="#19B27B"/>
<rect y="98" width="14" height="14" fill="#0D6253"/>
<rect x="14" y="98" width="14" height="14" fill="#138F72"/>
<rect x="28" y="98" width="14" height="14" fill="#138F72"/>
<rect y="112" width="14" height="14" fill="#0D6253"/>
<rect x="14" y="112" width="14" height="14" fill="#138F72"/>
<rect x="28" y="112" width="14" height="14" fill="#138F72"/>
<rect x="196" y="98" width="14" height="14" fill="#0D6253"/>
<rect x="182" y="98" width="14" height="14" fill="#138F72"/>
<rect x="168" y="98" width="14" height="14" fill="#138F72"/>
<rect x="154" y="98" width="14" height="14" fill="#138F72"/>
<rect x="140" y="98" width="14" height="14" fill="#138F72"/>
<rect x="126" y="98" width="14" height="14" fill="#138F72"/>
<rect x="112" y="98" width="14" height="14" fill="#138F72"/>
<rect x="98" y="98" width="14" height="14" fill="#138F72"/>
<rect x="84" y="98" width="14" height="14" fill="#138F72"/>
<rect x="70" y="98" width="14" height="14" fill="#138F72"/>
<rect x="56" y="98" width="14" height="14" fill="#138F72"/>
<rect x="42" y="98" width="14" height="14" fill="#138F72"/>
<rect x="210" y="98" width="14" height="14" fill="#138F72"/>
<rect x="280" y="98" width="14" height="14" fill="#19B27B"/>
<rect x="196" y="84" width="14" height="14" fill="#138F72"/>
<rect x="210" y="112" width="14" height="14" fill="#0D6253"/>
<rect x="182" y="112" width="14" height="14" fill="#0D6253"/>
<rect x="168" y="112" width="14" height="14" fill="#0D6253"/>
<rect x="154" y="112" width="14" height="14" fill="#0D6253"/>
<rect x="140" y="112" width="14" height="14" fill="#0D6253"/>
<rect x="126" y="112" width="14" height="14" fill="#0D6253"/>
<rect x="112" y="112" width="14" height="14" fill="#0D6253"/>
<rect x="98" y="112" width="14" height="14" fill="#0D6253"/>
<rect x="84" y="112" width="14" height="14" fill="#0D6253"/>
<rect x="70" y="112" width="14" height="14" fill="#0D6253"/>
<rect x="56" y="112" width="14" height="14" fill="#0D6253"/>
<rect x="70" y="126" width="14" height="14" fill="#0D6253"/>
<rect y="126" width="14" height="14" fill="#0D6253"/>
<rect y="140" width="14" height="14" fill="#0D6253"/>
<rect y="154" width="14" height="14" fill="#0D6253"/>
<rect x="14" y="126" width="14" height="14" fill="#138F72"/>
<rect x="14" y="140" width="14" height="14" fill="#138F72"/>
<rect x="28" y="126" width="14" height="14" fill="#138F72"/>
<rect y="168" width="14" height="14" fill="#0D6253"/>
<rect x="14" y="154" width="14" height="14" fill="#0D6253"/>
<rect x="28" y="154" width="14" height="14" fill="#0D6253"/>
<rect x="14" y="238" width="14" height="14" fill="#0D6253"/>
<rect x="28" y="238" width="14" height="14" fill="#0D6253"/>
<rect x="14" y="238" width="14" height="14" fill="#0D6253"/>
<rect x="42" y="168" width="14" height="14" fill="#0D6253"/>
<rect x="42" y="224" width="14" height="14" fill="#0D6253"/>
<rect y="182" width="14" height="14" fill="#0D6253"/>
<rect y="196" width="14" height="14" fill="#0D6253"/>
<rect y="210" width="14" height="14" fill="#0D6253"/>
<rect y="224" width="14" height="14" fill="#0D6253"/>
<rect x="168" y="126" width="14" height="14" fill="#0D6253"/>
<rect x="70" y="140" width="14" height="14" fill="#0D6253"/>
<rect x="168" y="140" width="14" height="14" fill="#0D6253"/>
<rect x="70" y="154" width="14" height="14" fill="#0D6253"/>
<rect x="168" y="154" width="14" height="14" fill="#0D6253"/>
<rect x="42" y="112" width="14" height="14" fill="#0D6253"/>
<rect x="224" y="126" width="14" height="14" fill="#0D6253"/>
<rect x="224" y="112" width="14" height="14" fill="#138F72"/>
<rect x="224" y="98" width="14" height="14" fill="#19B27B"/>
<rect x="238" y="126" width="14" height="14" fill="#0D6253"/>
<rect x="238" y="112" width="14" height="14" fill="#138F72"/>
<rect x="238" y="98" width="14" height="14" fill="#138F72"/>
<rect x="252" y="126" width="14" height="14" fill="#0D6253"/>
<rect x="252" y="112" width="14" height="14" fill="#138F72"/>
<rect x="252" y="98" width="14" height="14" fill="#19B27B"/>
<rect x="266" y="126" width="14" height="14" fill="#0D6253"/>
<rect x="266" y="112" width="14" height="14" fill="#138F72"/>
<rect x="266" y="98" width="14" height="14" fill="#138F72"/>
<rect x="280" y="112" width="14" height="14" fill="#0D6253"/>
<rect x="252" y="56" width="14" height="14" fill="white"/>
<rect x="252" y="42" width="14" height="14" fill="#138F72"/>
<rect x="252" y="28" width="14" height="14" fill="#19B27B"/>
<rect x="196" y="42" width="14" height="14" fill="#1FD1B1"/>
<rect x="196" y="56" width="14" height="14" fill="#19B27B"/>
<rect x="196" y="70" width="14" height="14" fill="#19B27B"/>
</svg>
